<svg xmlns="http://www.w3.org/2000/svg" width="34" height="30" viewBox="0 0 34 30">
    <defs>
        <filter id="prefix__a" width="104.8%" height="101.3%" x="-2.4%" y="-.7%" filterUnits="objectBoundingBox">
            <feOffset in="SourceAlpha" result="shadowOffsetOuter1"/>
            <feGaussianBlur in="shadowOffsetOuter1" result="shadowBlurOuter1" stdDeviation="2"/>
            <feColorMatrix in="shadowBlurOuter1" result="shadowMatrixOuter1" values="0 0 0 0 0.411764706 0 0 0 0 0.415686275 0 0 0 0 0.419607843 0 0 0 1 0"/>
            <feMerge>
                <feMergeNode in="shadowMatrixOuter1"/>
                <feMergeNode in="SourceGraphic"/>
            </feMerge>
        </filter>
    </defs>
    <g fill="none" fill-rule="evenodd" filter="url(#prefix__a)" transform="translate(-13 -563)">
        <g>
            <g fill="#0B0B0B" fill-rule="nonzero" transform="translate(15 563) translate(2 9)">
                <path d="M0 5.092l8.125-1.625L9.75.217h9.75l3.25 3.25L26 5.092v4.875h-2.438c0-3.25-3.25-3.25-3.25-3.25-3.25 0-3.25 3.25-3.25 3.25H9.75c0-3.25-3.25-3.25-3.25-3.25-3.25 0-3.25 3.25-3.25 3.25H0V5.092z"/>
                <circle cx="6.5" cy="9.967" r="1.625"/>
                <circle cx="20.313" cy="9.967" r="1.625"/>
            </g>
            <path stroke="#979797" stroke-opacity=".007" d="M0.5 0.5H29.5V29.5H0.5z" transform="translate(15 563)"/>
        </g>
    </g>
</svg>
