<svg xmlns="http://www.w3.org/2000/svg" width="443" height="343" viewBox="0 0 443 343">
    <path fill="#404040" d="M408.003 301.627H354.4v27.36c0 7.555-6.611 13.68-14.767 13.68-8.155 0-14.766-6.125-14.766-13.68v-27.36H118.133v27.36c0 7.555-6.61 13.68-14.766 13.68-8.156 0-14.767-6.125-14.767-13.68v-27.36H35.145C15.768 301.552.08 287.019 0 269.068V33.088C.081 15.16 15.792.667 35.145.667h372.858C427.298.742 442.919 15.213 443 33.088v235.98c0 17.928-15.645 32.483-34.997 32.559zM426.6 26.929c-.083-2.875-2.645-5.188-5.829-5.262H22.986c-3.245 0-5.9 2.333-5.986 5.262v245.333c0 2.985 2.68 5.405 5.986 5.405h397.785c3.245-.077 5.829-2.475 5.829-5.405V26.93z"/>
</svg>
