<svg xmlns="http://www.w3.org/2000/svg" width="23" height="24" viewBox="0 0 23 24">
    <g fill="none" fill-rule="evenodd">
        <g fill="#000" fill-rule="nonzero">
            <g>
                <g transform="translate(-29 -240) translate(0 227) translate(29.306 13.067)">
                    <ellipse cx="13.357" cy="9.582" rx="1.571" ry="1.916"/>
                    <path d="M21.214 17.248h-3.143V6.708h3.143c.472 0 .786-.384.786-.959s-.314-.958-.786-.958h-3.143V.958c0-.575-.314-.958-.785-.958-.472 0-.786.383-.786.958v3.833h-11V.958C5.5.383 5.186 0 4.714 0c-.471 0-.785.383-.785.958v3.833H.786c-.472 0-.786.383-.786.958s.314.959.786.959h3.143v10.54H.786c-.472 0-.786.383-.786.958s.314.958.786.958h3.143v3.833c0 .575.314.959.785.959.472 0 .786-.384.786-.959v-3.833h11v3.833c0 .575.314.959.786.959.471 0 .785-.384.785-.959v-3.833h3.143c.472 0 .786-.383.786-.958s-.314-.958-.786-.958zM16.5 6.708v4.312l-3.143 3.066-2.671-2.396c-.315-.287-.707-.287-1.022 0L5.5 16.098v-9.39h11z"/>
                </g>
            </g>
        </g>
    </g>
</svg>
