<svg xmlns="http://www.w3.org/2000/svg" width="23" height="16" viewBox="0 0 23 16">
    <g fill="none" fill-rule="evenodd">
        <g>
            <g>
                <g>
                    <g>
                        <path fill="#0B0B0B" d="M17.286 10.178c.82 1.595.417 3.552-.964 4.686-1.38 1.134-3.36 1.134-4.742 0-1.38-1.134-1.783-3.091-.963-4.686L7.923 7.459c-1.028.277-2.124.095-3.011-.499L1.61 10.294 0 8.669l3.475-3.508c-.66-1.719.001-3.668 1.566-4.618 1.565-.95 3.58-.627 4.776.767 1.196 1.393 1.225 3.453.069 4.88l2.341 2.363c1.081-.567 2.368-.567 3.45 0l4.713-4.758L22 5.42l-4.714 4.758z" transform="translate(-29 -434) translate(0 419) translate(29.306 15)"/>
                        <path fill="#90A3C4" d="M7.071 2.357c.868 0 1.572.704 1.572 1.572 0 .867-.704 1.571-1.572 1.571-.867 0-1.571-.704-1.571-1.571 0-.868.704-1.572 1.571-1.572zm7.072 7.857c.868 0 1.571.704 1.571 1.572 0 .868-.703 1.571-1.571 1.571s-1.572-.703-1.572-1.571.704-1.572 1.572-1.572z" transform="translate(-29 -434) translate(0 419) translate(29.306 15)"/>
                    </g>
                </g>
            </g>
        </g>
    </g>
</svg>
