<svg xmlns="http://www.w3.org/2000/svg" width="25" height="24" viewBox="0 0 25 24">
    <g fill="none" fill-rule="evenodd">
        <g fill-rule="nonzero">
            <g>
                <g>
                    <path fill="#454545" d="M8.11 20.918v1.898c0 .647-.526 1.172-1.172 1.172H4.733c-.646 0-1.171-.525-1.171-1.172v-1.898h4.546z" transform="translate(-20 -541) translate(0 530) translate(20.16 11)"/>
                    <path fill="#0B0B0B" d="M20.438 20.918v1.898c0 .647-.526 1.172-1.172 1.172h-2.203c-.647 0-1.172-.525-1.172-1.172v-1.898h4.546z" transform="translate(-20 -541) translate(0 530) translate(20.16 11)"/>
                    <g>
                        <path fill="#454545" d="M3.007.012C2.995.16 3.002.194 3 1.418h-.834l-.76.76v3.224c0 .388-.315.703-.703.703C.315 6.105 0 5.79 0 5.402V1.887c0-.187.074-.365.206-.498L1.378.218c.132-.132.31-.206.497-.206h1.132z" transform="translate(-20 -541) translate(0 530) translate(20.16 11) translate(0 2.86)"/>
                        <path fill="#0B0B0B" d="M24 1.887v3.515c0 .388-.315.703-.703.703-.388 0-.703-.315-.703-.703V2.178l-.76-.76H21C20.998.202 21.005.16 20.993.012h1.132c.187 0 .365.074.497.205l1.172 1.172c.132.133.206.311.206.498z" transform="translate(-20 -541) translate(0 530) translate(20.16 11) translate(0 2.86)"/>
                    </g>
                    <path fill="#90A3C4" d="M21.234 13.284v4.214l-.468 1.124.468 1.124v.703c0 .388-.315.703-.703.703H3.47c-.388 0-.703-.315-.703-.703v-.703l.468-1.035-.468-1.213v-4.214h18.468z" transform="translate(-20 -541) translate(0 530) translate(20.16 11)"/>
                    <path fill="#637189" d="M21.234 13.284v4.214l-.468 1.124.468 1.124v.703c0 .388-.315.703-.703.703h-8.56v-7.868h9.263z" transform="translate(-20 -541) translate(0 530) translate(20.16 11)"/>
                    <path fill="#EBEBFF" d="M7.236 19.746h-4.47v-2.248l4.172.724c.086.015.157.076.183.16l.338 1.058c.048.152-.064.306-.223.306z" transform="translate(-20 -541) translate(0 530) translate(20.16 11)"/>
                    <path fill="#DCDCFF" d="M21.234 17.498v2.248h-4.47c-.159 0-.271-.154-.223-.306l.338-1.058c.026-.084.097-.145.183-.16l4.172-.724z" transform="translate(-20 -541) translate(0 530) translate(20.16 11)"/>
                    <path fill="#454545" d="M18.188.012H5.813c-1.68 0-3.047 1.367-3.047 3.047v10.226c1.237.802 17.23.802 18.468 0V3.059c0-1.68-1.366-3.047-3.047-3.047z" transform="translate(-20 -541) translate(0 530) translate(20.16 11)"/>
                    <path fill="#0B0B0B" d="M21.234 3.059v10.225c-.62.403-4.945.604-9.263.603V.012h6.216c1.68 0 3.047 1.367 3.047 3.047z" transform="translate(-20 -541) translate(0 530) translate(20.16 11)"/>
                    <path fill="#FFE3B4" d="M14.11 16.23H9.89c-.388 0-.703.315-.703.704 0 .388.315.703.704.703h4.218c.389 0 .704-.315.704-.703 0-.389-.315-.704-.704-.704z" transform="translate(-20 -541) translate(0 530) translate(20.16 11)"/>
                    <path fill="#D6BE94" d="M14.813 16.934c0 .388-.316.703-.704.703h-2.138V16.23h2.138c.389 0 .704.315.704.704z" transform="translate(-20 -541) translate(0 530) translate(20.16 11)"/>
                </g>
            </g>
        </g>
    </g>
</svg>
