<svg xmlns="http://www.w3.org/2000/svg" width="23" height="21" viewBox="0 0 23 21">
    <g fill="none" fill-rule="evenodd">
        <g fill="#0B0B0B" fill-rule="nonzero">
            <g>
                <g>
                    <g>
                        <g>
                            <path d="M19.643 0H2.357C1.021 0 0 1.021 0 2.357V16.5c0 1.336 1.021 2.357 2.357 2.357h1.964c0-.314 0-.628.158-.943-.865-.157-1.65-.864-1.886-1.728-.157-.707-.236-1.415-.236-2.043 0-.629.079-1.336.236-2.043.236-.943.943-1.571 1.886-1.729-.315-.864-.079-1.807.628-2.514 1.022-.943 2.2-1.65 3.457-2.043.943-.235 1.886 0 2.436.707.629-.707 1.571-1.021 2.436-.707 1.335.393 2.514 1.1 3.457 2.043.707.629.864 1.65.628 2.514.865.158 1.65.865 1.886 1.729.157.707.236 1.336.236 2.043 0 .707-.079 1.336-.236 2.043-.236.943-.943 1.571-1.886 1.728.079.315.158.629.158.943h1.964c1.336 0 2.357-1.021 2.357-2.357V2.357C22 1.021 20.979 0 19.643 0zM4.636 3.457c0 .079-.079.157-.157.236-.158.157-.315.236-.55.236-.236 0-.393-.079-.55-.236-.158-.157-.236-.314-.236-.55 0-.236.078-.393.236-.55l.078-.079c.079 0 .079-.078.157-.078.079-.079.079-.079.157-.079h.315c.078 0 .078 0 .157.079.078 0 .078.078.157.078l.079.079c.078.078.157.157.157.236.078.078.078.235.078.314 0 .078 0 .236-.078.314zm2.2.236c-.157.157-.315.236-.55.236-.236 0-.393-.079-.55-.236-.157-.157-.236-.314-.236-.55 0-.079 0-.236.079-.314.078-.079.078-.158.157-.236.078-.079.157-.157.235-.157.315-.157.629-.079.865.157.078.078.157.157.157.236.078.078.078.235.078.314 0 .236-.078.393-.235.55zm2.514-.236c-.079.079-.079.157-.157.236-.157.157-.314.236-.55.236-.079 0-.236 0-.314-.079-.079-.079-.158-.079-.236-.157-.079-.079-.157-.157-.157-.236-.079-.078-.079-.236-.079-.314 0-.079 0-.236.079-.314.078-.079.078-.158.157-.236.314-.314.786-.314 1.1 0 .078.078.157.157.157.236.079.078.079.235.079.314 0 .078 0 .236-.079.314z" transform="translate(-29 -339) translate(0 325) translate(29.306 14.01)"/>
                            <path d="M17.836 12.493c-.079-.393-.472-.629-.865-.629-.471.079-.942-.157-1.178-.55s-.236-.864.078-1.257c.236-.314.236-.786-.078-1.021-.786-.786-1.807-1.336-2.829-1.65-.393-.079-.785.078-.943.471-.157.393-.628.707-1.021.707-.393 0-.864-.314-1.021-.707-.158-.393-.55-.55-.943-.471-1.022.314-2.043.864-2.829 1.65-.314.314-.314.707-.078 1.021.314.393.314.864.078 1.257-.236.393-.707.629-1.178.55-.393-.078-.786.236-.865.629-.157.55-.235 1.1-.235 1.65 0 .55.078 1.1.235 1.65.079.393.472.628.865.628.471-.078.942.158 1.178.55.236.393.236.865-.078 1.258-.236.314-.236.785.078 1.021.786.786 1.807 1.336 2.829 1.65.393.079.785-.079.943-.471.157-.393.628-.708 1.021-.708.393 0 .864.315 1.021.708.158.314.393.471.708.471h.235c1.022-.314 2.043-.864 2.829-1.65.314-.314.314-.707.078-1.021-.314-.393-.314-.865-.078-1.258.236-.392.707-.628 1.178-.55.393.079.786-.235.865-.628.157-.55.235-1.1.235-1.65 0-.55-.078-1.1-.235-1.65zM11 16.5c-1.336 0-2.357-1.021-2.357-2.357 0-1.336 1.021-2.357 2.357-2.357 1.336 0 2.357 1.021 2.357 2.357 0 1.336-1.021 2.357-2.357 2.357z" transform="translate(-29 -339) translate(0 325) translate(29.306 14.01)"/>
                        </g>
                    </g>
                </g>
            </g>
        </g>
    </g>
</svg>
