<svg xmlns="http://www.w3.org/2000/svg" width="28" height="22" viewBox="0 0 28 22">
    <g fill="#0B0B0B">
        <path d="M26.485 7.621L26 7.5v5l.485-.121c.89-.223 1.515-1.023 1.515-1.94v-.877c0-.918-.625-1.718-1.515-1.941zM10 5L10 15 23 19 23 1zM8 5.2l-6.199.62C.779 5.922 0 6.782 0 7.81v4.38c0 1.028.779 1.888 1.801 1.99L8 14.8V5.2z"/>
        <path d="M3.545 10.412L5.38 21.168c.081.481.498.832.985.832H7c.552 0 1-.448 1-1l-.003-7.112-4.452-3.476zM22.5 20c.828 0 1.5-.672 1.5-1.5v-17c0-.828-.672-1.5-1.5-1.5S21 .672 21 1.5v17c0 .828.672 1.5 1.5 1.5z"/>
    </g>
</svg>
