<svg xmlns="http://www.w3.org/2000/svg" width="20" height="20" viewBox="0 0 20 20">
    <g fill="none" fill-rule="evenodd">
        <g fill-rule="nonzero">
            <g>
                <g>
                    <g>
                        <g>
                            <g>
                                <g transform="translate(-1228 -415) translate(284 246) translate(80 15) translate(865) translate(0 153) translate(0 2)">
                                    <circle cx="9" cy="9" r="9.25" fill="#C93636" stroke="#FFF" stroke-width=".5"/>
                                    <path fill="#FFF" d="M14.105 12.713L10.392 9l3.699-3.713c.056-.056.056-.14 0-.196l-1.196-1.196c-.056-.056-.14-.056-.197 0L9 7.608 5.302 3.909c-.057-.056-.141-.056-.197 0L3.909 5.105c-.056.056-.056.14 0 .197L7.594 9l-3.699 3.698c-.056.057-.056.141 0 .197l1.196 1.196c.056.056.154.056.196 0L9 10.392l3.698 3.699c.057.056.155.056.211.014l1.196-1.196c.056-.056.056-.14 0-.197z"/>
                                </g>
                            </g>
                        </g>
                    </g>
                </g>
            </g>
        </g>
    </g>
</svg>
