<svg xmlns="http://www.w3.org/2000/svg" width="30" height="30" viewBox="0 0 30 30">
    <g fill="none" fill-rule="evenodd">
        <g>
            <g>
                <g>
                    <g>
                        <g fill-rule="nonzero" transform="translate(-22 -457) translate(22 426) translate(0 31) translate(2 9)">
                            <path fill="#0B0B0B" d="M0 4.875L8.125 3.25 9.75 0h9.75l3.25 3.25L26 4.875V9.75h-2.438c0-3.25-3.25-3.25-3.25-3.25-3.25 0-3.25 3.25-3.25 3.25H9.75C9.75 6.5 6.5 6.5 6.5 6.5c-3.25 0-3.25 3.25-3.25 3.25H0V4.875z"/>
                            <circle cx="6.5" cy="9.967" r="1.625" fill="#9B7837"/>
                            <circle cx="20.313" cy="9.967" r="1.625" fill="#9B7837"/>
                        </g>
                        <path stroke="#979797" stroke-opacity=".007" d="M0.5 0.5H29.5V29.5H0.5z" transform="translate(-22 -457) translate(22 426) translate(0 31)"/>
                    </g>
                </g>
            </g>
        </g>
    </g>
</svg>
