<svg xmlns="http://www.w3.org/2000/svg" width="22" height="30" viewBox="0 0 22 30">
    <g fill="none" fill-rule="evenodd">
        <g fill-rule="nonzero">
            <g>
                <g>
                    <g>
                        <path fill="#0B0B0B" d="M6.188 16.129c-.81.003-1.465.662-1.462 1.472v10.263c.001 1.305 1.576 1.96 2.501 1.04l3.367-3.356 3.357 3.356c.925.92 2.5.265 2.5-1.04V17.601c.004-.81-.65-1.47-1.461-1.472H6.188z" transform="translate(-30 -475) translate(0 467) translate(30.235 8)"/>
                        <path fill="#90A3C4" d="M10.59 0C4.937 0 .323 4.614.323 10.266c0 5.653 4.614 10.267 10.267 10.267s10.267-4.614 10.267-10.267C20.857 4.614 16.243 0 10.59 0z" transform="translate(-30 -475) translate(0 467) translate(30.235 8)"/>
                        <path fill="#FFE3B4" d="M4.723 10.266c0 3.223 2.644 5.867 5.867 5.867s5.867-2.644 5.867-5.867c0-3.222-2.644-5.866-5.867-5.866-3.274 0-5.867 2.69-5.867 5.866z" transform="translate(-30 -475) translate(0 467) translate(30.235 8)"/>
                    </g>
                </g>
            </g>
        </g>
    </g>
</svg>
