<svg xmlns="http://www.w3.org/2000/svg" width="25" height="26" viewBox="0 0 25 26">
    <g fill="none" fill-rule="evenodd">
        <g fill="#375A9B" fill-rule="nonzero">
            <g>
                <g>
                    <path d="M7.192 25c0 .46-.373.833-.834.833H.833c-.109-.001-.216-.024-.316-.066-.204-.085-.366-.247-.45-.45C.024 25.217 0 25.109 0 25v-5.525c0-.46.373-.833.833-.833.46 0 .834.373.834.833v2.637L9.1 15.558c.33-.283.823-.264 1.131.044.308.308.327.8.044 1.131l-6.418 7.434h2.501c.46 0 .834.373.834.833zm-3.154-6.905c.39 0 .705-.337.705-.753V5.74c0-.037.029-.068.064-.068h10.821c.39 0 .705-.337.705-.752 0-.416-.315-.753-.705-.753H4.807c-.812.004-1.47.706-1.474 1.573v11.602c0 .416.316.753.705.753zM20.014 9.5c-.36 0-.652.313-.652.698v10.7c0 .034-.027.062-.06.062H9.32c-.36 0-.652.313-.652.699 0 .385.292.698.652.698h9.984c.752-.004 1.36-.655 1.364-1.46V10.199c0-.385-.292-.698-.653-.698zm4.92-8.175c-.085-.204-.247-.365-.45-.45-.103-.034-.21-.048-.317-.042h-5.525c-.46 0-.834.373-.834.834 0 .46.373.833.834.833h2.421l-6.338 7.433c-.323.325-.323.85 0 1.175.325.323.85.323 1.175 0l7.433-6.154v2.238c0 .46.373.833.834.833.46 0 .833-.373.833-.833V1.667c-.001-.11-.024-.217-.067-.317v-.025z" transform="translate(-1350 -713) translate(1323 693) translate(27 20)"/>
                </g>
            </g>
        </g>
    </g>
</svg>
