<svg xmlns="http://www.w3.org/2000/svg" width="18" height="17" viewBox="0 0 18 17">
    <g fill="none" fill-rule="evenodd">
        <g fill="#375A9B" fill-rule="nonzero">
            <g>
                <g>
                    <g>
                        <path d="M5 4L5 0 4 0 4 4 0 4 0 5 4 5 4 9 5 9 5 5 9 5 9 4z" transform="translate(-373 -285) translate(363 275) translate(10 9) translate(0 1)"/>
                        <path d="M7 7v1.5l4 3.8V17h3v-4.7l4-3.8V7H7zm6 5v4h-1v-4L8 8.3V8h9v.3L13 12z" transform="translate(-373 -285) translate(363 275) translate(10 9) translate(0 1)"/>
                    </g>
                </g>
            </g>
        </g>
    </g>
</svg>
