<svg xmlns="http://www.w3.org/2000/svg" width="22" height="22" viewBox="0 0 22 22">
    <g fill="none" fill-rule="evenodd">
        <g fill="#404040" fill-rule="nonzero">
            <g>
                <g>
                    <g>
                        <g>
                            <path d="M0 2.514C0 1.166 1.151.07 2.566.07h16.868C20.85.07 22 1.197 22 2.582v12.412c0 1.386-1.151 2.513-2.566 2.513h-5.425c-1.208 0-2.007-.703-2.793-1.6l-2.263-2.583c-.725-.827-.531-1.496-.414-1.745.117-.25.51-.829 1.622-.829l4.447.006c.573 0 1.04-.457 1.04-1.018V5.951c0-.56-.466-1.017-1.04-1.017l-7.522-.006c-.422 0-.764-.335-.764-.748 0-.412.342-.747.764-.747l7.522.006c1.415 0 2.566 1.127 2.566 2.512v3.787c0 1.386-1.15 2.513-2.566 2.513l-4.447-.006c-.05 0-.093.002-.13.006.021.03.048.063.08.1l2.263 2.582c.504.575.86 1.08 1.634 1.08h5.426c.573 0 1.04-.457 1.04-1.018V2.583c0-.561-.467-1.018-1.04-1.018H2.566c-.573 0-1.04.426-1.04.95 0 .588.31.949.478.949h2.512c.421 0 .763.334.763.747s-.342.747-.763.747H2.004C.88 4.958 0 3.885 0 2.514z" transform="translate(-509 -24) translate(509 22) translate(0 2)"/>
                            <path d="M0 14.994V6.526c0-.413.342-.747.763-.747.422 0 .764.334.764.747v8.468c0 .561.466 1.018 1.039 1.018h1.217c.573 0 1.04-.457 1.04-1.018v-5.39c0-1.386 1.151-2.513 2.566-2.513h4.388c.421 0 .763.335.763.748 0 .412-.342.747-.763.747H7.389c-.573 0-1.04.457-1.04 1.018v5.39c0 1.386-1.15 2.513-2.566 2.513H2.566C1.151 17.507 0 16.38 0 14.994z" transform="translate(-509 -24) translate(509 22) translate(0 2)"/>
                        </g>
                        <path d="M21.237 18.634c.421 0 .763.335.763.747 0 .413-.342.748-.763.748h-8.081L11.54 21.71c-.143.14-.338.22-.54.22s-.396-.08-.54-.22L8.844 20.13H.764c-.422 0-.764-.335-.764-.748s.342-.747.763-.747H9.16c.203 0 .397.078.54.219l1.3 1.273 1.3-1.273c.143-.14.338-.219.54-.219h8.397z" transform="translate(-509 -24) translate(509 22) translate(0 2)"/>
                    </g>
                </g>
            </g>
        </g>
    </g>
</svg>
