<svg xmlns="http://www.w3.org/2000/svg" width="28" height="28" viewBox="0 0 28 28">
    <path fill-rule="evenodd" d="M0 25.667h2.545V0h22.91v25.667H28V28H0v-2.333zm8.91-3.5v4.666h3.817v-4.666H8.91zm6.363 0v4.666h3.818v-4.666h-3.818zm-7.637-5.834H5.091v2.334h2.545v-2.334zm10.182 0h-2.545v2.334h2.545v-2.334zm-5.09 0h-2.546v2.334h2.545v-2.334zm10.181 0h-2.545v2.334h2.545v-2.334zM7.636 11.667H5.091V14h2.545v-2.333zm10.182 0h-2.545V14h2.545v-2.333zm-5.09 0h-2.546V14h2.545v-2.333zm10.181 0h-2.545V14h2.545v-2.333zM7.636 7H5.091v2.333h2.545V7zm10.182 0h-2.545v2.333h2.545V7zm-5.09 0h-2.546v2.333h2.545V7zm10.181 0h-2.545v2.333h2.545V7zM7.636 2.333H5.091v2.334h2.545V2.333zm10.182 0h-2.545v2.334h2.545V2.333zm-5.09 0h-2.546v2.334h2.545V2.333zm10.181 0h-2.545v2.334h2.545V2.333z"/>
</svg>
