<svg xmlns="http://www.w3.org/2000/svg" width="30" height="30" viewBox="0 0 30 30">
    <g fill="none" fill-rule="evenodd">
        <g>
            <g>
                <g>
                    <g>
                        <g>
                            <path d="M8.112 7.832H13.012V12.007H8.112z" transform="translate(-22 -537) translate(22 426) translate(0 111) translate(5 4)"/>
                            <path fill="#0B0B0B" fill-rule="nonzero" d="M19.578 12.199h-3.984V8.024h3.984c.74 0 1.342-.603 1.342-1.343s-.602-1.342-1.342-1.342h-3.984V1.342c0-.74-.602-1.342-1.342-1.342-.74 0-1.342.602-1.342 1.342V5.34h-4.9V1.342C8.01.602 7.408 0 6.668 0c-.74 0-1.343.602-1.343 1.342v3.997H1.342C.602 5.339 0 5.94 0 6.68c0 .74.602 1.343 1.342 1.343H5.325v4.175H1.342C.602 12.199 0 12.8 0 13.54c0 .74.602 1.342 1.342 1.342h3.983v3.983c0 .74.603 1.342 1.343 1.342s1.342-.602 1.342-1.342v-3.983h4.9v3.983c0 .74.602 1.342 1.342 1.342.74 0 1.342-.602 1.342-1.342v-3.983h3.984c.74 0 1.342-.602 1.342-1.342 0-.74-.602-1.342-1.342-1.342zm-6.668 0h-4.9V8.024h4.9v4.175z" transform="translate(-22 -537) translate(22 426) translate(0 111) translate(5 4)"/>
                        </g>
                        <path stroke="#FFF" stroke-opacity=".01" d="M0.5 0.5H29.5V29.5H0.5z" transform="translate(-22 -537) translate(22 426) translate(0 111)"/>
                    </g>
                </g>
            </g>
        </g>
    </g>
</svg>
