<?xml version="1.0" encoding="utf-8"?>
<!-- Generator: Adobe Illustrator 17.0.0, SVG Export Plug-In . SVG Version: 6.00 Build 0)  -->
<!DOCTYPE svg PUBLIC "-//W3C//DTD SVG 1.1//EN" "http://www.w3.org/Graphics/SVG/1.1/DTD/svg11.dtd">
<svg version="1.1" id="Layer_1" xmlns="http://www.w3.org/2000/svg" xmlns:xlink="http://www.w3.org/1999/xlink" x="0px" y="0px"
	 width="200px" height="200px" viewBox="0 0 200 200" enable-background="new 0 0 200 200" xml:space="preserve">
<g>
	<g>
		<g>
			<path fill="#FFCB45" d="M121.953,64.663c-0.503-4.553-1.307-6.907-2.736-8.8c-0.593,0.134-1.233,0.014-1.768-0.395l-5.159-3.289
				c-0.542-0.416-0.867-1.045-0.95-1.712c-0.244-0.09-0.496-0.176-0.751-0.259v4.342H89.427v-4.342
				c-0.255,0.083-0.506,0.168-0.75,0.259c-0.083,0.667-0.407,1.296-0.951,1.712l-5.159,3.289c-0.535,0.409-1.175,0.53-1.767,0.395
				c-1.429,1.893-2.233,4.246-2.736,8.8c-1.333,12.044-0.406,30.974-0.461,35.636c-0.295,24.87,0.837,40.011,2.413,45.253
				c0.3,0.996,1.045,1.817,2.078,2.497c0.22-0.109,0.489-0.176,0.818-0.176c1.839,0,2.735,1.255,4.77,0.895
				c1.343-0.239,1.797,0.923,1.952,1.742c1.205,0.199,2.415,0.345,3.563,0.454c0.187-0.274,0.492-0.454,0.84-0.454h11.927
				c0.348,0,0.653,0.18,0.842,0.456c0.857-0.082,1.749-0.184,2.649-0.312c0.129-0.818,0.555-2.138,1.978-1.886
				c2.034,0.36,2.931-0.895,4.771-0.895c0.574,0,0.965,0.199,1.234,0.474c1.286-0.733,2.219-1.649,2.564-2.795
				c1.576-5.242,2.709-20.383,2.413-45.253C122.358,95.636,123.286,76.707,121.953,64.663z"/>
			
				<linearGradient id="SVGID_1_" gradientUnits="userSpaceOnUse" x1="286.9268" y1="-171.6436" x2="308.0887" y2="-171.6436" gradientTransform="matrix(1 0 0 -1 -197.5 -120)">
				<stop  offset="0" style="stop-color:#000000"/>
				<stop  offset="1" style="stop-color:#1B1C1C"/>
			</linearGradient>
			<path fill="url(#SVGID_1_)" d="M110.589,54.551v-4.342c-6.036-1.963-15.125-1.963-21.162,0v4.342H110.589z"/>
			<path fill="#FFEA45" d="M120.638,65.408c-0.817-7.557-2.468-8.156-6.529-11.701c-5.509-4.808-22.693-4.808-28.2,0
				c-4.062,3.545-5.713,4.144-6.53,11.701c-1.252,11.594-0.46,29.814-0.512,34.301c-0.277,23.939,0.867,38.513,2.349,43.559
				c1.706,5.813,18.792,5.496,18.794,5.496c0.001,0,17.088,0.317,18.794-5.496c1.482-5.046,2.626-19.62,2.348-43.559
				C121.1,95.221,121.889,77.002,120.638,65.408z"/>
			
				<linearGradient id="SVGID_2_" gradientUnits="userSpaceOnUse" x1="282.0143" y1="-212.0083" x2="313.0005" y2="-212.0083" gradientTransform="matrix(1 0 0 -1 -197.5 -120)">
				<stop  offset="0" style="stop-color:#000000"/>
				<stop  offset="1" style="stop-color:#1B1C1C"/>
			</linearGradient>
			<path fill="url(#SVGID_2_)" d="M91.59,90.406c-3.572,0.526-6.13,1.557-7.076,1.982l0.277,1.656c0,0,2.793-1.503,7.162-2.174
				c3.772-0.581,12.338-0.581,16.109,0c4.368,0.671,7.162,2.174,7.162,2.174l0.277-1.656c-0.946-0.425-3.503-1.456-7.077-1.982
				C104.483,89.828,95.532,89.828,91.59,90.406z"/>
			
				<linearGradient id="SVGID_3_" gradientUnits="userSpaceOnUse" x1="279.5675" y1="-195.7465" x2="315.449" y2="-195.7465" gradientTransform="matrix(1 0 0 -1 -197.5 -120)">
				<stop  offset="0" style="stop-color:#000000"/>
				<stop  offset="1" style="stop-color:#1B1C1C"/>
			</linearGradient>
			<path fill="url(#SVGID_3_)" d="M83.411,77.967c1.389-0.631,3.801-1.678,7.577-2.538c5.42-1.234,12.62-1.234,18.038,0
				c3.778,0.86,6.19,1.907,7.578,2.538c0.608,0.274,0.991,0.503,1.189,0.731l0.008-0.051c0,0,0.257-1.195,0.092-1.517
				c-0.143-0.279-0.556-0.54-1.289-0.873c-1.388-0.63-3.801-1.677-7.578-2.537c-5.418-1.233-12.618-1.233-18.038,0
				c-3.776,0.861-6.187,1.908-7.577,2.537c-0.733,0.332-1.146,0.594-1.289,0.873c-0.164,0.321,0.091,1.517,0.091,1.517l0.009,0.051
				C82.419,78.468,82.804,78.242,83.411,77.967z"/>
			
				<linearGradient id="SVGID_4_" gradientUnits="userSpaceOnUse" x1="279.7232" y1="-203.4461" x2="315.2942" y2="-203.4461" gradientTransform="matrix(1 0 0 -1 -197.5 -120)">
				<stop  offset="0" style="stop-color:#000000"/>
				<stop  offset="1" style="stop-color:#1B1C1C"/>
			</linearGradient>
			<path fill="url(#SVGID_4_)" d="M91.59,90.406c3.941-0.579,12.893-0.579,16.835,0c3.574,0.526,6.131,1.557,7.077,1.982
				l2.292-13.691c-0.198-0.228-0.582-0.456-1.189-0.731c-1.388-0.631-3.801-1.678-7.578-2.538c-5.418-1.234-12.618-1.234-18.038,0
				c-3.776,0.86-6.187,1.907-7.577,2.538c-0.608,0.274-0.992,0.502-1.188,0.731l2.291,13.691
				C85.461,91.964,88.018,90.933,91.59,90.406z"/>
			
				<linearGradient id="SVGID_5_" gradientUnits="userSpaceOnUse" x1="282.4564" y1="-255.9198" x2="312.5593" y2="-255.9198" gradientTransform="matrix(1 0 0 -1 -197.5 -120)">
				<stop  offset="0" style="stop-color:#000000"/>
				<stop  offset="1" style="stop-color:#1B1C1C"/>
			</linearGradient>
			<path fill="url(#SVGID_5_)" d="M114.359,129.966c-0.116-0.593-0.251-1.189-0.408-1.781c0,0-0.2,0.109-0.608,0.281
				c-1.495,0.627-5.788,2.089-13.336,2.089c-6.915,0-11.701-1.522-13.328-2.125c-0.403-0.151-0.616-0.244-0.616-0.244
				c-0.151,0.572-0.282,1.149-0.397,1.723c-1.122,5.629-0.579,11.004-0.579,11.004s3.038,1.429,7.379,2.26
				c3.34,0.642,11.743,0.642,15.082,0c4.341-0.832,7.379-2.26,7.379-2.26S115.467,135.576,114.359,129.966z"/>
			<g>
				
					<linearGradient id="SVGID_6_" gradientUnits="userSpaceOnUse" x1="278.3491" y1="-213.6873" x2="281.8549" y2="-213.6873" gradientTransform="matrix(1 0 0 -1 -197.5 -120)">
					<stop  offset="0" style="stop-color:#000000"/>
					<stop  offset="1" style="stop-color:#1B1C1C"/>
				</linearGradient>
				<path fill="url(#SVGID_6_)" d="M81.341,108.081l3.014,1.071l-0.519-14.155L80.96,78.223c0,0-0.249,4.302,0,10.467
					c0.158,3.9,0.605,9.268,0.598,12.729C81.549,104.707,81.435,106.936,81.341,108.081z"/>
				
					<linearGradient id="SVGID_7_" gradientUnits="userSpaceOnUse" x1="313.16" y1="-213.6873" x2="316.667" y2="-213.6873" gradientTransform="matrix(1 0 0 -1 -197.5 -120)">
					<stop  offset="0" style="stop-color:#000000"/>
					<stop  offset="1" style="stop-color:#1B1C1C"/>
				</linearGradient>
				<path fill="url(#SVGID_7_)" d="M118.676,108.081l-3.016,1.071l0.519-14.155l2.877-16.773c0,0,0.249,4.302,0,10.467
					c-0.159,3.9-0.605,9.268-0.598,12.729C118.466,104.707,118.561,106.967,118.676,108.081z"/>
			</g>
			<g>
				
					<linearGradient id="SVGID_8_" gradientUnits="userSpaceOnUse" x1="278.5984" y1="-239.7081" x2="282.2246" y2="-239.7081" gradientTransform="matrix(1 0 0 -1 -197.5 -120)">
					<stop  offset="0" style="stop-color:#000000"/>
					<stop  offset="1" style="stop-color:#1B1C1C"/>
				</linearGradient>
				<path fill="url(#SVGID_8_)" d="M81.251,109.389l3.125,1.368l0.348,11.835c0,0-0.272,1.471-1.439,3.896
					c-1.329,2.764-2.034,3.538-2.034,3.538S80.907,113.821,81.251,109.389z"/>
				
					<linearGradient id="SVGID_9_" gradientUnits="userSpaceOnUse" x1="312.7921" y1="-239.7081" x2="316.4167" y2="-239.7081" gradientTransform="matrix(1 0 0 -1 -197.5 -120)">
					<stop  offset="0" style="stop-color:#000000"/>
					<stop  offset="1" style="stop-color:#1B1C1C"/>
				</linearGradient>
				<path fill="url(#SVGID_9_)" d="M118.765,109.389l-3.123,1.368l-0.349,11.835c0,0,0.271,1.471,1.437,3.896
					c1.33,2.764,2.035,3.538,2.035,3.538S119.107,113.821,118.765,109.389z"/>
			</g>
			<g>
				
					<radialGradient id="SVGID_10_" cx="282.2378" cy="-143.2709" r="3.293" gradientTransform="matrix(1 0 0 -1.0961 -197.5 -103.8486)" gradientUnits="userSpaceOnUse">
					<stop  offset="0" style="stop-color:#FFFFFF"/>
					<stop  offset="1" style="stop-color:#D2D6D5"/>
				</radialGradient>
				<path fill="url(#SVGID_10_)" d="M82.566,55.467l5.159-3.289c0.544-0.416,0.867-1.045,0.951-1.712
					c-1.471,0.544-2.73,1.213-3.668,2.012c-1.815,1.548-3.176,2.012-4.209,3.383C81.391,55.997,82.031,55.877,82.566,55.467z"/>
				
					<radialGradient id="SVGID_11_" cx="312.7787" cy="-143.2715" r="3.2932" gradientTransform="matrix(1 0 0 -1.0961 -197.5 -103.8486)" gradientUnits="userSpaceOnUse">
					<stop  offset="0" style="stop-color:#FFFFFF"/>
					<stop  offset="1" style="stop-color:#D2D6D5"/>
				</radialGradient>
				<path fill="url(#SVGID_11_)" d="M112.29,52.179l5.159,3.289c0.535,0.409,1.175,0.53,1.768,0.395
					c-1.034-1.371-2.395-1.835-4.209-3.383c-0.938-0.799-2.196-1.469-3.668-2.012C111.424,51.134,111.747,51.763,112.29,52.179z"/>
			</g>
			<path fill="#F15A29" d="M87.681,148.767c-2.035,0.36-2.931-0.895-4.77-0.895c-0.329,0-0.598,0.068-0.818,0.176
				c1.87,1.23,4.688,1.992,7.541,2.461C89.479,149.69,89.024,148.529,87.681,148.767z"/>
			<path fill="#F15A29" d="M111.432,148.767c-1.423-0.252-1.849,1.068-1.978,1.886c2.921-0.419,5.91-1.125,7.983-2.307
				c-0.269-0.275-0.66-0.474-1.234-0.474C114.363,147.872,113.467,149.127,111.432,148.767z"/>
			<path fill="#FFFA45" d="M100.008,92.955c-11.05-0.262-14.757,1.84-14.757,1.84s0.134,28.023,0.977,30.807
				c0.572,1.888,7.533,2.723,11.954,3.066h3.65c4.422-0.343,11.382-1.178,11.953-3.066c0.843-2.784,0.979-30.807,0.979-30.807
				S111.056,92.692,100.008,92.955z"/>
			
				<linearGradient id="SVGID_12_" gradientUnits="userSpaceOnUse" x1="315.982" y1="-199.9143" x2="319.9788" y2="-207.6528" gradientTransform="matrix(1 0 0 -1 -197.5 -120)">
				<stop  offset="0" style="stop-color:#000000"/>
				<stop  offset="1" style="stop-color:#1B1C1C"/>
			</linearGradient>
			<path fill="url(#SVGID_12_)" d="M118.93,79.269c0,0,1.724,0.357,1.764,1.903c0.04,1.546-1.726,4.683-1.764,2.698
				C118.892,81.886,118.773,79.863,118.93,79.269z"/>
			<path fill="#FFCB45" d="M124.929,82.659c-0.379-0.535-3.853-1.666-3.853-1.666c-0.684-0.235-0.918,0.4-0.999,0.94l4.979,1.587
				C125.117,83.277,125.136,82.949,124.929,82.659z"/>
			
				<linearGradient id="SVGID_13_" gradientUnits="userSpaceOnUse" x1="317.5389" y1="-202.9017" x2="322.5987" y2="-202.9017" gradientTransform="matrix(1 0 0 -1 -197.5 -120)">
				<stop  offset="0" style="stop-color:#000000"/>
				<stop  offset="1" style="stop-color:#1B1C1C"/>
			</linearGradient>
			<path fill="url(#SVGID_13_)" d="M120.078,81.933c-0.052,0.351-0.038,0.662-0.038,0.662l4.889,1.274c0,0,0.078-0.144,0.127-0.349
				L120.078,81.933z"/>
			
				<linearGradient id="SVGID_14_" gradientUnits="userSpaceOnUse" x1="277.6526" y1="-200.5817" x2="281.1392" y2="-208.2352" gradientTransform="matrix(1 0 0 -1 -197.5 -120)">
				<stop  offset="0" style="stop-color:#000000"/>
				<stop  offset="1" style="stop-color:#1B1C1C"/>
			</linearGradient>
			<path fill="url(#SVGID_14_)" d="M81.064,79.161c0,0-1.835,0.357-1.877,1.903c-0.041,1.546,1.835,4.683,1.877,2.699
				C81.106,81.778,81.232,79.756,81.064,79.161z"/>
			<path fill="#FFCB45" d="M78.923,80.886c0,0-3.473,1.129-3.853,1.665c-0.225,0.32-0.182,0.686-0.109,0.933l4.97-1.596
				C79.86,81.337,79.632,80.642,78.923,80.886z"/>
			
				<linearGradient id="SVGID_15_" gradientUnits="userSpaceOnUse" x1="272.4017" y1="-202.8257" x2="277.4626" y2="-202.8257" gradientTransform="matrix(1 0 0 -1 -197.5 -120)">
				<stop  offset="0" style="stop-color:#000000"/>
				<stop  offset="1" style="stop-color:#1B1C1C"/>
			</linearGradient>
			<path fill="url(#SVGID_15_)" d="M74.961,83.484c0.048,0.166,0.109,0.279,0.109,0.279l4.891-1.274c0,0,0.011-0.276-0.03-0.601
				L74.961,83.484z"/>
			<linearGradient id="SVGID_16_" gradientUnits="userSpaceOnUse" x1="77.194" y1="102.0512" x2="77.6534" y2="102.0512">
				<stop  offset="0" style="stop-color:#000000"/>
				<stop  offset="1" style="stop-color:#1B1C1C"/>
			</linearGradient>
			<path fill="url(#SVGID_16_)" d="M77.653,99.581c-0.254,0-0.459,0.215-0.459,0.48v3.98c0,0.265,0.206,0.481,0.459,0.481V99.581z"
				/>
			<linearGradient id="SVGID_17_" gradientUnits="userSpaceOnUse" x1="77.4243" y1="121.9663" x2="77.8832" y2="121.9663">
				<stop  offset="0" style="stop-color:#000000"/>
				<stop  offset="1" style="stop-color:#1B1C1C"/>
			</linearGradient>
			<path fill="url(#SVGID_17_)" d="M77.883,119.496c-0.253,0-0.459,0.215-0.459,0.48v3.979c0,0.265,0.206,0.482,0.459,0.482V119.496
				z"/>
			<linearGradient id="SVGID_18_" gradientUnits="userSpaceOnUse" x1="122.3627" y1="102.0512" x2="122.8209" y2="102.0512">
				<stop  offset="0" style="stop-color:#000000"/>
				<stop  offset="1" style="stop-color:#1B1C1C"/>
			</linearGradient>
			<path fill="url(#SVGID_18_)" d="M122.363,99.581c0.253,0,0.458,0.215,0.458,0.48v3.98c0,0.265-0.205,0.481-0.458,0.481V99.581z"
				/>
			<linearGradient id="SVGID_19_" gradientUnits="userSpaceOnUse" x1="122.1342" y1="121.9663" x2="122.5924" y2="121.9663">
				<stop  offset="0" style="stop-color:#000000"/>
				<stop  offset="1" style="stop-color:#1B1C1C"/>
			</linearGradient>
			<path fill="url(#SVGID_19_)" d="M122.134,119.496c0.253,0,0.458,0.215,0.458,0.48v3.979c0,0.265-0.205,0.482-0.458,0.482V119.496
				z"/>
			
				<linearGradient id="SVGID_20_" gradientUnits="userSpaceOnUse" x1="290.6962" y1="-270.8867" x2="304.3049" y2="-270.8867" gradientTransform="matrix(1 0 0 -1 -197.5 -120)">
				<stop  offset="0" style="stop-color:#363B39"/>
				<stop  offset="1" style="stop-color:#1B1C1C"/>
			</linearGradient>
			<path fill="url(#SVGID_20_)" d="M105.963,150.509H94.036c-0.348,0-0.653,0.18-0.84,0.454c3.742,0.353,6.812,0.298,6.812,0.298
				c0.001,0,3.061,0.055,6.797-0.296C106.617,150.69,106.311,150.509,105.963,150.509z"/>
			<g>
				<g>
					<path fill="#3C2415" d="M106.65,104.524H93.34v-5.046h13.31V104.524z M94.005,103.858h11.98v-3.716h-11.98V103.858z"/>
				</g>
				<rect x="93.731" y="102.111" fill="#C96E00" width="12.541" height="2.014"/>
				<rect x="93.731" y="99.828" fill="#FBB040" width="12.541" height="2.014"/>
				<g>
					<rect x="95.878" y="102.491" fill="#3C2415" width="1.652" height="0.74"/>
					<rect x="94.204" y="103.24" fill="#3C2415" width="1.652" height="0.74"/>
					<rect x="104.137" y="103.24" fill="#3C2415" width="1.651" height="0.74"/>
					<polygon fill="#3C2415" points="100.823,102.535 99.172,102.535 99.172,103.25 97.574,103.25 97.574,103.99 99.225,103.99 
						99.225,103.274 100.796,103.274 100.796,104.002 102.448,104.002 102.448,103.262 100.823,103.262 					"/>
					<rect x="102.484" y="102.507" fill="#3C2415" width="1.651" height="0.74"/>
				</g>
				<g>
					<rect x="95.878" y="100.73" fill="#3C2415" width="1.652" height="0.739"/>
					<rect x="94.204" y="99.979" fill="#3C2415" width="1.652" height="0.74"/>
					<rect x="104.137" y="99.979" fill="#3C2415" width="1.651" height="0.74"/>
					<polygon fill="#3C2415" points="100.823,101.425 99.172,101.425 99.172,100.71 97.574,100.71 97.574,99.97 99.225,99.97 
						99.225,100.686 100.796,100.686 100.796,99.959 102.448,99.959 102.448,100.698 100.823,100.698 					"/>
					<rect x="102.484" y="100.714" fill="#3C2415" width="1.651" height="0.739"/>
				</g>
				<rect x="93.34" y="101.648" fill="#66493A" width="13.31" height="0.706"/>
			</g>
		</g>
	</g>
</g>
</svg>
