<svg xmlns="http://www.w3.org/2000/svg" width="22" height="18" viewBox="0 0 22 18">
    <g fill="none" fill-rule="evenodd">
        <g fill="#000" fill-rule="nonzero">
            <g>
                <g>
                    <g>
                        <path d="M18.05 6.512C17.762 2.873 14.71 0 11 0 7.826 0 5.1 2.062 4.22 5.069 1.715 5.939 0 8.315 0 11c0 3.466 2.82 6.286 6.286 6.286H16.5c3.032 0 5.5-2.468 5.5-5.5 0-2.474-1.626-4.598-3.95-5.274zM7.626 8.087L9.198 9.66c.225.224.293.562.17.856-.12.294-.408.485-.725.485h-.674c.35 1.352 1.57 2.357 3.031 2.357.437 0 .86-.088 1.256-.26.397-.177.86.008 1.034.405.175.397-.007.86-.405 1.034-.596.26-1.23.393-1.885.393-2.331 0-4.267-1.703-4.644-3.929H5.5c-.317 0-.605-.19-.726-.485-.122-.294-.054-.632.17-.856l1.572-1.572c.307-.307.804-.307 1.11 0zM11 5.5c2.331 0 4.267 1.703 4.644 3.929h.856c.317 0 .605.191.726.484.122.294.054.632-.17.857l-1.572 1.571c-.153.153-.354.23-.555.23-.202 0-.403-.077-.556-.23l-1.571-1.571c-.225-.225-.293-.563-.17-.857.12-.293.408-.484.725-.484h.674C13.681 8.077 12.461 7.07 11 7.07c-.438 0-.862.088-1.259.262-.399.173-.86-.008-1.034-.405-.175-.397.007-.86.404-1.034C9.707 5.633 10.344 5.5 11 5.5z" transform="translate(-26 -427) translate(22 426) translate(4) translate(0 1)"/>
                    </g>
                </g>
            </g>
        </g>
    </g>
</svg>
