<svg xmlns="http://www.w3.org/2000/svg" width="20" height="15" viewBox="0 0 20 15">
    <g fill="none" fill-rule="evenodd">
        <g fill-rule="nonzero">
            <g>
                <g>
                    <g>
                        <g>
                            <g transform="translate(-30 -147) translate(0 129) translate(29.306 14.044) translate(.786 4.714) translate(10.214)">
                                <path fill="#90A3C4" d="M3.83 8.014c-1.276 0-2.298.356-3.064.802 1.192 1.068 1.702 2.315 1.788 2.404l.085.178v1.96h6.81v-1.782c-.086 0-1.448-3.562-5.619-3.562z"/>
                                <ellipse cx="3.83" cy="3.117" fill="#92A5C5" rx="2.979" ry="3.117"/>
                            </g>
                            <path fill="#0B0B0B" d="M2.72 3.117C2.72 1.425 4.17 0 5.893 0c1.722 0 3.173 1.425 3.173 3.117s-1.45 3.116-3.173 3.116S2.72 4.81 2.72 3.117zm3.173 4.897C1.45 8.014 0 11.576 0 11.576v1.781h11.786v-1.78s-1.45-3.563-5.893-3.563z" transform="translate(-30 -147) translate(0 129) translate(29.306 14.044) translate(.786 4.714)"/>
                        </g>
                    </g>
                </g>
            </g>
        </g>
    </g>
</svg>
