<svg xmlns="http://www.w3.org/2000/svg" width="32" height="32" viewBox="0 0 32 32">
    <defs>
        <filter id="prefix__a" width="104.8%" height="101.3%" x="-2.4%" y="-.7%" filterUnits="objectBoundingBox">
            <feOffset in="SourceAlpha" result="shadowOffsetOuter1"/>
            <feGaussianBlur in="shadowOffsetOuter1" result="shadowBlurOuter1" stdDeviation="2"/>
            <feColorMatrix in="shadowBlurOuter1" result="shadowMatrixOuter1" values="0 0 0 0 0.411764706 0 0 0 0 0.415686275 0 0 0 0 0.419607843 0 0 0 1 0"/>
            <feMerge>
                <feMergeNode in="shadowMatrixOuter1"/>
                <feMergeNode in="SourceGraphic"/>
            </feMerge>
        </filter>
    </defs>
    <g fill="none" fill-rule="evenodd" filter="url(#prefix__a)" transform="translate(-14 -522)">
        <g>
            <g fill="#0B0B0B" fill-rule="nonzero">
                <path d="M0 12c0 5.155 4.179 9.333 9.333 9.333 5.155 0 9.334-4.178 9.334-9.333s-4.179-9.333-9.334-9.333C4.18 2.667 0 6.845 0 12zm9.333-8c4.419 0 8 3.581 8 8 0 4.419-3.581 8-8 8-4.418 0-8-3.581-8-8 0-4.419 3.582-8 8-8zM6.667 0H12V1.333H6.667z" transform="translate(15 523) translate(6 4)"/>
                <path d="M16.667 2L18 2 18 4.667 16.667 4.667z" transform="translate(15 523) translate(6 4) rotate(-45 17.333 3.334)"/>
                <path d="M9.333 5.333V12H16c0-3.681-2.985-6.667-6.667-6.667z" transform="translate(15 523) translate(6 4)"/>
            </g>
            <path stroke="#FFF" stroke-opacity=".01" d="M0.5 0.5H29.5V29.5H0.5z" transform="translate(15 523)"/>
        </g>
    </g>
</svg>
