<svg xmlns="http://www.w3.org/2000/svg" width="26" height="21" viewBox="0 0 26 21">
    <path fill="#0B0B0B" d="M24.206 8.559l-2.058-5.88C21.587 1.077 20.069 0 18.371 0H7.629C5.931 0 4.413 1.077 3.853 2.678l-2.058 5.88C.696 9.281 0 10.53 0 11.904V19c0 1.105.895 2 2 2s2-.895 2-2v-1.261S9.281 18 13 18c3.719 0 9-.261 9-.261V19c0 1.105.895 2 2 2s2-.895 2-2v-7.096c0-1.374-.697-2.623-1.794-3.345zM4.595 6.613l1.146-3.274C6.022 2.537 6.779 2 7.629 2h10.742c.85 0 1.607.537 1.888 1.339l1.146 3.274c.18.515-.249 1.034-.788.947C18.656 7.243 16.135 7 13 7s-5.656.243-7.617.56c-.539.087-.968-.432-.788-.947zM4.5 14c-.828 0-1.5-.672-1.5-1.5S3.672 11 4.5 11s1.5.672 1.5 1.5S5.328 14 4.5 14zM16 13h-6c-.552 0-1-.448-1-1s.448-1 1-1h6c.552 0 1 .448 1 1s-.448 1-1 1zm5.5 1c-.828 0-1.5-.672-1.5-1.5s.672-1.5 1.5-1.5 1.5.672 1.5 1.5-.672 1.5-1.5 1.5z"/>
</svg>
