<svg xmlns="http://www.w3.org/2000/svg" width="28" height="28" viewBox="0 0 28 28">
    <g fill="#375A9B">
        <path d="M14 0C6.268 0 0 6.268 0 14s6.268 14 14 14 14-6.268 14-14c0-3.713-1.475-7.274-4.1-9.9C21.273 1.476 17.712 0 14 0zm0 26C7.373 26 2 20.627 2 14S7.373 2 14 2s12 5.373 12 12c0 3.183-1.264 6.235-3.515 8.485C20.235 24.735 17.183 26 14 26z"/>
        <path d="M17.54 9.05L14 12.59 10.46 9.05 9.05 10.46 12.59 14 9.05 17.54 10.46 18.95 14 15.41 17.54 18.95 18.95 17.54 15.41 14 18.95 10.46z"/>
    </g>
</svg>
