<svg xmlns="http://www.w3.org/2000/svg" width="44" height="41" viewBox="0 0 44 41">
    <g fill="none" fill-rule="evenodd">
        <ellipse cx="21.579" cy="20.5" fill="#F2F2F2" rx="21.579" ry="20.5"/>
        <path fill="#000" fill-rule="nonzero" d="M33.447 18.342H14.922l7.1-7.11c.733-.856.683-2.133-.114-2.93-.797-.797-2.073-.846-2.93-.113L8.19 18.98c-.102.1-.192.213-.27.334-.036.052-.068.106-.097.162l-.108.216-.064.216c-.006.06-.006.122 0 .183-.055.278-.055.564 0 .842-.006.06-.006.122 0 .183l.064.216c0 .075.076.14.108.216.029.056.061.11.097.161.078.122.168.234.27.335l10.79 10.79c.856.733 2.132.683 2.93-.114.796-.797.846-2.073.112-2.93l-7.1-7.131h18.526c1.192 0 2.158-.966 2.158-2.158s-.966-2.158-2.158-2.158z"/>
    </g>
</svg>
