<svg xmlns="http://www.w3.org/2000/svg" width="26" height="17" viewBox="0 0 26 17">
    <g fill="#0B0B0B">
        <g transform="translate(13)">
            <path d="M4.875 10.2c-1.625 0-2.925.453-3.9 1.02 1.517 1.36 2.167 2.947 2.275 3.06l.108.227V17h8.667v-2.267c-.108 0-1.842-4.533-7.15-4.533z"/>
            <ellipse cx="4.875" cy="3.967" rx="3.792" ry="3.967"/>
        </g>
        <path d="M3.462 3.967C3.462 1.813 5.308 0 7.5 0s4.038 1.813 4.038 3.967c0 2.153-1.846 3.966-4.038 3.966S3.462 6.12 3.462 3.967zM7.5 10.2c-5.654 0-7.5 4.533-7.5 4.533V17h15v-2.267S13.154 10.2 7.5 10.2z"/>
    </g>
</svg>
